<svg width="16" height="19" viewBox="0 0 16 19" fill="none" xmlns="http://www.w3.org/2000/svg">
<path d="M13.0531 17.779C12.0731 18.729 11.0031 18.579 9.97309 18.129C8.88309 17.669 7.88309 17.649 6.73309 18.129C5.29309 18.749 4.53309 18.569 3.67309 17.779C-1.20691 12.749 -0.486906 5.08902 5.05309 4.80902C6.40309 4.87902 7.34309 5.54902 8.13309 5.60902C9.31309 5.36902 10.4431 4.67902 11.7031 4.76902C13.2131 4.88902 14.3531 5.48902 15.1031 6.56902C11.9831 8.43902 12.7231 12.549 15.5831 13.699C15.0131 15.199 14.2731 16.689 13.0431 17.789L13.0531 17.779ZM8.03309 4.74902C7.88309 2.51902 9.69309 0.679023 11.7731 0.499023C12.0631 3.07902 9.43309 4.99902 8.03309 4.74902Z" fill="white"/>
</svg>
