<svg width="16" height="23" viewBox="0 0 16 23" fill="none" xmlns="http://www.w3.org/2000/svg">
<path fill-rule="evenodd" clip-rule="evenodd" d="M14.0348 5.01282L13.2809 20.3756C13.2528 20.9503 13.0426 21.4904 12.6932 21.8853C12.3438 22.2802 11.8816 22.5001 11.4014 22.5H4.59859C4.11835 22.5001 3.65623 22.2802 3.30683 21.8853C2.95742 21.4904 2.74715 20.9503 2.71906 20.3756L1.96706 5.01282H0V3.88462C0 3.73501 0.0495798 3.59152 0.137832 3.48573C0.226085 3.37995 0.34578 3.32051 0.470588 3.32051H15.5294C15.6542 3.32051 15.7739 3.37995 15.8622 3.48573C15.9504 3.59152 16 3.73501 16 3.88462V5.01282H14.0348ZM6.11765 0.5H9.88235C10.0072 0.5 10.1269 0.559432 10.2151 0.665222C10.3034 0.771012 10.3529 0.914493 10.3529 1.0641V2.19231H5.64706V1.0641C5.64706 0.914493 5.69664 0.771012 5.78489 0.665222C5.87314 0.559432 5.99284 0.5 6.11765 0.5ZM5.17647 7.83333L5.64706 17.9872H7.05882L6.68235 7.83333H5.17647ZM9.41177 7.83333L8.94118 17.9872H10.3529L10.8235 7.83333H9.41177Z" fill="white"/>
</svg>
