<svg width="18" height="19" viewBox="0 0 18 19" fill="none" xmlns="http://www.w3.org/2000/svg">
<g clip-path="url(#clip0_6081_17762)">
<path d="M6.27127 1.09195C4.47279 1.71586 2.92178 2.90006 1.84607 4.47061C0.770355 6.04116 0.226633 7.91528 0.294767 9.81769C0.362901 11.7201 1.0393 13.5505 2.22461 15.0401C3.40992 16.5297 5.04167 17.5999 6.88018 18.0935C8.37069 18.4781 9.93231 18.495 11.4308 18.1427C12.7883 17.8378 14.0433 17.1856 15.073 16.2499C16.1447 15.2463 16.9225 13.9697 17.323 12.5571C17.7583 11.021 17.8357 9.40561 17.5494 7.83492H9.17939V11.307H14.0267C13.9299 11.8607 13.7223 12.3892 13.4164 12.8609C13.1105 13.3326 12.7125 13.7377 12.2464 14.052C11.6545 14.4435 10.9873 14.7069 10.2875 14.8254C9.58572 14.9559 8.86588 14.9559 8.16408 14.8254C7.45279 14.6783 6.77991 14.3848 6.1883 13.9634C5.23788 13.2906 4.52425 12.3348 4.14924 11.2324C3.76788 10.1094 3.76788 8.89187 4.14924 7.76883C4.41618 6.98163 4.85747 6.26489 5.44018 5.67211C6.10701 4.98128 6.95124 4.48748 7.88024 4.24487C8.80924 4.00226 9.78712 4.02023 10.7066 4.2968C11.4249 4.51728 12.0817 4.90252 12.6247 5.4218C13.1713 4.87805 13.7169 4.33289 14.2616 3.78633C14.5428 3.49242 14.8494 3.21258 15.1264 2.91164C14.2975 2.14028 13.3246 1.54006 12.2633 1.14539C10.3307 0.443657 8.21608 0.424798 6.27127 1.09195Z" fill="white"/>
<path d="M6.27102 1.09215C8.21567 0.42454 10.3303 0.442902 12.263 1.14418C13.3245 1.54153 14.297 2.14464 15.1248 2.91887C14.8435 3.2198 14.5468 3.50105 14.2599 3.79355C13.7143 4.33824 13.1691 4.88105 12.6245 5.42199C12.0814 4.90272 11.4246 4.51748 10.7063 4.29699C9.78717 4.01945 8.80932 4.00045 7.88007 4.24207C6.95083 4.48368 6.10608 4.97658 5.43852 5.66668C4.85581 6.25946 4.41452 6.9762 4.14758 7.7634L1.23242 5.50637C2.27587 3.43716 4.08254 1.85437 6.27102 1.09215Z" fill="#E33629"/>
<path d="M0.457574 7.74229C0.61426 6.96575 0.874392 6.21373 1.23101 5.50635L4.14617 7.769C3.76481 8.89204 3.76481 10.1096 4.14617 11.2326C3.17492 11.9826 2.2032 12.7363 1.23101 13.4938C0.338255 11.7168 0.0659794 9.69205 0.457574 7.74229Z" fill="#F8BD00"/>
<path d="M9.17836 7.8335H17.5484C17.8347 9.40418 17.7572 11.0196 17.322 12.5557C16.9215 13.9682 16.1436 15.2449 15.072 16.2485C14.1312 15.5144 13.1862 14.786 12.2454 14.0519C12.7118 13.7373 13.1099 13.3318 13.4158 12.8596C13.7217 12.3875 13.9292 11.8584 14.0257 11.3041H9.17836C9.17695 10.1482 9.17836 8.99084 9.17836 7.8335Z" fill="#587DBD"/>
<path d="M1.23047 13.4937C2.20266 12.7437 3.17437 11.9899 4.14562 11.2324C4.52139 12.3352 5.23604 13.291 6.1875 13.9634C6.78095 14.3828 7.45528 14.674 8.1675 14.8184C8.8693 14.9489 9.58914 14.9489 10.2909 14.8184C10.9907 14.6999 11.6579 14.4365 12.2498 14.0449C13.1906 14.779 14.1356 15.5074 15.0764 16.2415C14.0469 17.1777 12.7918 17.8304 11.4342 18.1357C9.93573 18.488 8.37411 18.4711 6.88359 18.0865C5.70474 17.7717 4.60361 17.2169 3.64922 16.4566C2.63905 15.6546 1.814 14.6439 1.23047 13.4937Z" fill="#319F43"/>
</g>
<defs>
<clipPath id="clip0_6081_17762">
<rect width="18" height="18" fill="white" transform="translate(0 0.5)"/>
</clipPath>
</defs>
</svg>
