<svg width="23" height="19" viewBox="0 0 23 19" fill="none" xmlns="http://www.w3.org/2000/svg">
<path d="M22.7266 2.31789V16.6821C22.7266 17.1816 22.5484 17.6091 22.1922 17.9645C21.8359 18.32 21.4084 18.4981 20.9097 18.4989H16.5391C16.3793 18.4989 16.2458 18.4449 16.1386 18.3369C16.0313 18.2289 15.9773 18.095 15.9766 17.9353C15.9758 17.7755 16.0298 17.6421 16.1386 17.5348C16.2473 17.4276 16.3808 17.3739 16.5391 17.3739H20.9097C21.1114 17.3739 21.2772 17.3091 21.4069 17.1793C21.5367 17.0496 21.6016 16.8839 21.6016 16.6821V2.31676C21.6016 2.11502 21.5367 1.94928 21.4069 1.81954C21.2772 1.6898 21.1114 1.62493 20.9097 1.62493H11.4766C11.2741 1.62493 11.1083 1.6898 10.9793 1.81954C10.8496 1.94928 10.7847 2.1154 10.7847 2.31789V3.63743C10.7847 3.79642 10.7307 3.92991 10.6227 4.0379C10.5147 4.1459 10.3808 4.19989 10.2211 4.19989C10.0613 4.19989 9.92781 4.1459 9.82056 4.0379C9.71331 3.92991 9.65931 3.79642 9.65856 3.63743V2.30439C9.65856 1.81092 9.83631 1.38682 10.1918 1.03209C10.5458 0.677364 10.9696 0.5 11.4631 0.5H20.9097C21.4092 0.5 21.8367 0.678114 22.1922 1.03434C22.5477 1.39057 22.7258 1.81804 22.7266 2.31676M0.226562 9.87516C0.226562 9.58643 0.292938 9.3082 0.425688 9.04047C0.558438 8.77198 0.745937 8.55637 0.988187 8.39363L5.92131 4.8906C6.08931 4.77136 6.26106 4.68586 6.43656 4.63412C6.61206 4.58162 6.79131 4.55537 6.97431 4.55537C7.15731 4.55537 7.33731 4.58162 7.51431 4.63412C7.69131 4.68661 7.86381 4.77211 8.03181 4.8906L12.9649 8.39363C13.2072 8.55637 13.3947 8.77198 13.5274 9.04047C13.6602 9.3082 13.7266 9.58643 13.7266 9.87516V16.6832C13.7266 17.1827 13.5484 17.6102 13.1922 17.9657C12.8359 18.3211 12.4084 18.4993 11.9097 18.5H10.2222C9.72194 18.5 9.29406 18.3219 8.93856 17.9657C8.58306 17.6094 8.40494 17.182 8.40419 16.6832V13.4367H5.54894V16.6821C5.54894 17.1816 5.37081 17.6091 5.01456 17.9645C4.65831 18.32 4.23081 18.4981 3.73206 18.4989H2.04456C1.54431 18.4989 1.11644 18.3208 0.760937 17.9645C0.405437 17.6083 0.227313 17.1812 0.226562 16.6832V9.87516ZM1.35156 9.86841V16.6832C1.35156 16.885 1.41644 17.0507 1.54619 17.1805C1.67594 17.3102 1.84206 17.3751 2.04456 17.3751H3.73206C3.93381 17.3751 4.09956 17.3102 4.22931 17.1805C4.35906 17.0507 4.42394 16.885 4.42394 16.6832V13.4806C4.42394 13.1506 4.53606 12.8735 4.76031 12.6492C4.98456 12.425 5.26206 12.3129 5.59281 12.3129H8.36031C8.69106 12.3129 8.96856 12.425 9.19281 12.6492C9.41706 12.8735 9.52956 13.151 9.53031 13.4817V16.6821C9.53031 16.8846 9.59481 17.0507 9.72381 17.1805C9.85356 17.3102 10.0193 17.3751 10.2211 17.3751H11.9086C12.1111 17.3751 12.2772 17.3102 12.4069 17.1805C12.5367 17.0507 12.6016 16.8846 12.6016 16.6821V9.86841C12.6016 9.75292 12.5764 9.64455 12.5262 9.54331C12.4759 9.44207 12.4002 9.35582 12.2989 9.28458L7.36581 5.83104C7.25031 5.7448 7.12056 5.70167 6.97656 5.70167C6.83256 5.70167 6.70281 5.74517 6.58731 5.83217L1.65419 9.28458C1.55369 9.35657 1.47794 9.44282 1.42694 9.54331C1.37669 9.64455 1.35156 9.75292 1.35156 9.86841ZM17.8159 5.86592H18.6372C18.7587 5.86592 18.8648 5.82017 18.9556 5.72867C19.0463 5.63793 19.0917 5.53181 19.0917 5.41032V4.58912C19.0917 4.46763 19.0463 4.36151 18.9556 4.27076C18.8648 4.18002 18.7587 4.13465 18.6372 4.13465H17.8159C17.6944 4.13465 17.5883 4.18002 17.4976 4.27076C17.4068 4.36151 17.3614 4.46725 17.3614 4.58799V5.41032C17.3614 5.53181 17.4068 5.63793 17.4976 5.72867C17.5883 5.81942 17.6944 5.86479 17.8159 5.86479M17.8159 10.3645H18.6372C18.7587 10.3645 18.8648 10.3191 18.9556 10.2284C19.0463 10.1376 19.0917 10.0315 19.0917 9.91004V9.08884C19.0917 8.96735 19.0463 8.86123 18.9556 8.77048C18.8648 8.67974 18.7587 8.63437 18.6372 8.63437H17.8159C17.6944 8.63437 17.5883 8.67974 17.4976 8.77048C17.4068 8.86123 17.3614 8.96697 17.3614 9.08771V9.91004C17.3614 10.0315 17.4068 10.1376 17.4976 10.2284C17.5883 10.3191 17.6944 10.3645 17.8159 10.3645ZM17.8159 14.8642H18.6372C18.7587 14.8642 18.8648 14.8189 18.9556 14.7281C19.0463 14.6374 19.0917 14.5312 19.0917 14.4098V13.5886C19.0917 13.4671 19.0463 13.3609 18.9556 13.2702C18.8648 13.1795 18.7587 13.1341 18.6372 13.1341H17.8159C17.6944 13.1341 17.5883 13.1795 17.4976 13.2702C17.4068 13.3609 17.3614 13.4671 17.3614 13.5886V14.4098C17.3614 14.5312 17.4068 14.6374 17.4976 14.7281C17.5883 14.8189 17.6944 14.8642 17.8159 14.8642Z" fill="white"/>
</svg>
