<svg width="16" height="20" viewBox="0 0 16 20" fill="none" xmlns="http://www.w3.org/2000/svg">
<path d="M7.73427 19.4612L7.73356 19.4607C7.59915 19.3669 5.77513 18.0722 3.9898 15.9809C2.19751 13.8814 0.500099 11.0446 0.5 7.8575C0.502289 5.90688 1.27818 4.0368 2.65749 2.65749C4.03673 1.27825 5.9067 0.502363 7.85722 0.5C9.80774 0.502363 11.6777 1.27825 13.057 2.65749C14.4363 4.03686 15.2122 5.90706 15.2144 7.85779C15.2142 11.0448 13.5169 13.8814 11.7246 15.9809C9.93931 18.0722 8.11529 19.3669 7.98088 19.4607L7.98017 19.4612C7.94414 19.4865 7.90122 19.5 7.85722 19.5C7.81323 19.5 7.7703 19.4865 7.73427 19.4612ZM9.72237 5.06584C9.17028 4.69695 8.52121 4.50005 7.85722 4.50005C6.96684 4.50005 6.11293 4.85375 5.48334 5.48334C4.85375 6.11293 4.50005 6.96684 4.50005 7.85722C4.50005 8.52121 4.69695 9.17028 5.06584 9.72237C5.43473 10.2744 5.95904 10.7047 6.57249 10.9588C7.18593 11.2129 7.86095 11.2794 8.51217 11.1499C9.1634 11.0203 9.76159 10.7006 10.2311 10.2311C10.7006 9.76159 11.0203 9.1634 11.1499 8.51217C11.2794 7.86095 11.2129 7.18593 10.9588 6.57249C10.7047 5.95904 10.2744 5.43473 9.72237 5.06584Z" stroke="#15ABA9"/>
</svg>
