<svg width="21" height="15" viewBox="0 0 21 15" fill="none" xmlns="http://www.w3.org/2000/svg">
<path d="M19.5 0H1.5C1.10218 0 0.720644 0.156176 0.43934 0.434171C0.158035 0.712166 0 1.08921 0 1.48235V13.3412C0 13.7343 0.158035 14.1114 0.43934 14.3894C0.720644 14.6674 1.10218 14.8235 1.5 14.8235H19.5C19.8978 14.8235 20.2794 14.6674 20.5607 14.3894C20.842 14.1114 21 13.7343 21 13.3412V1.48235C21 1.08921 20.842 0.712166 20.5607 0.434171C20.2794 0.156176 19.8978 0 19.5 0ZM17.85 1.48235L10.5 6.50753L3.15 1.48235H17.85ZM1.5 13.3412V2.15682L10.0725 8.01953C10.198 8.1056 10.3472 8.15172 10.5 8.15172C10.6528 8.15172 10.802 8.1056 10.9275 8.01953L19.5 2.15682V13.3412H1.5Z" fill="#15ABA9"/>
</svg>
