<svg width="21" height="22" viewBox="0 0 21 22" fill="none" xmlns="http://www.w3.org/2000/svg">
<path d="M4.79634 1.76959C4.71886 1.66786 4.62106 1.58413 4.50944 1.52394C4.39782 1.46376 4.27493 1.42851 4.14893 1.42052C4.02293 1.41254 3.89671 1.43201 3.77866 1.47765C3.6606 1.52328 3.55341 1.59403 3.4642 1.68519L2.10711 3.07166C1.4732 3.72001 1.23958 4.63762 1.51651 5.44271C2.66718 8.77438 4.53668 11.7995 6.98684 14.2946C9.43141 16.7954 12.3953 18.7035 15.6596 19.878C16.4484 20.1606 17.3474 19.9222 17.9826 19.2752L19.3397 17.8901C19.429 17.799 19.4983 17.6896 19.543 17.5691C19.5878 17.4486 19.6068 17.3198 19.599 17.1912C19.5912 17.0626 19.5567 16.9371 19.4977 16.8232C19.4387 16.7093 19.3567 16.6095 19.257 16.5304L16.2292 14.1272C16.1226 14.0431 15.9988 13.9847 15.8669 13.9564C15.7351 13.9281 15.5987 13.9306 15.4679 13.9638L12.5937 14.6965C12.21 14.7937 11.8082 14.7882 11.4272 14.6805C11.0462 14.5728 10.6989 14.3665 10.4189 14.0816L7.19552 10.7903C6.9162 10.5046 6.71387 10.1502 6.6081 9.76137C6.50233 9.3725 6.49671 8.96235 6.59179 8.57062L7.31101 5.63695C7.34351 5.5035 7.34598 5.36428 7.31825 5.22973C7.29052 5.09517 7.23331 4.96876 7.15089 4.85999L4.79634 1.76959ZM2.47329 0.675153C2.70296 0.44066 2.97889 0.25872 3.28274 0.141414C3.58658 0.0241084 3.91141 -0.0258784 4.23564 -0.00522709C4.55986 0.0154242 4.87608 0.106241 5.16328 0.261193C5.45048 0.416145 5.7021 0.631686 5.90143 0.893504L8.25598 3.98257C8.68778 4.54921 8.84003 5.28732 8.66941 5.9839L7.95149 8.91757C7.91464 9.06953 7.91677 9.22862 7.95769 9.3795C7.99861 9.53037 8.07694 9.66794 8.18511 9.77892L11.4098 13.0703C11.5187 13.1809 11.6537 13.261 11.8018 13.3027C11.9498 13.3445 12.106 13.3466 12.255 13.3087L15.128 12.576C15.4649 12.4905 15.8163 12.4841 16.1559 12.5572C16.4955 12.6302 16.8145 12.7809 17.0888 12.9979L20.1154 15.4011C21.2034 16.2652 21.3031 17.9061 20.3293 18.8988L18.9722 20.2839C18.001 21.2752 16.5494 21.7105 15.1963 21.2243C11.7323 19.9819 8.58743 17.958 5.99593 15.3033C3.39513 12.6587 1.41224 9.44934 0.194862 5.91424C-0.280248 4.53447 0.146301 3.05156 1.11752 2.06028L2.47329 0.675153Z" fill="#15ABA9"/>
</svg>
