<svg width="20" height="20" viewBox="0 0 20 20" fill="none" xmlns="http://www.w3.org/2000/svg">
<path d="M10 11.7228C11.023 11.7228 12.0041 11.3165 12.7274 10.5931C13.4508 9.86976 13.8571 8.88868 13.8571 7.86571V5.29428C13.8571 4.2713 13.4508 3.29022 12.7274 2.56686C12.0041 1.84351 11.023 1.43713 10 1.43713C8.97702 1.43713 7.99594 1.84351 7.27259 2.56686C6.54923 3.29022 6.14286 4.2713 6.14286 5.29428V7.86571C6.14286 8.88868 6.54923 9.86976 7.27259 10.5931C7.99594 11.3165 8.97702 11.7228 10 11.7228ZM10 11.7228C14.2609 11.7228 19 12.2436 19 16.3411V17.2771C19 17.6181 18.8645 17.9452 18.6234 18.1863C18.3823 18.4274 18.0553 18.5628 17.7143 18.5628H2.28571C1.94472 18.5628 1.6177 18.4274 1.37658 18.1863C1.13546 17.9452 1 17.6181 1 17.2771V16.3411C1 12.2436 5.73914 11.7228 10 11.7228Z" stroke="#999999" stroke-width="1.5" stroke-linecap="round" stroke-linejoin="round"/>
</svg>
