<svg width="23" height="23" viewBox="0 0 23 23" fill="none" xmlns="http://www.w3.org/2000/svg">
<path d="M20.3625 0H11.925C10.65 0 9.6 1.05 9.6 2.3625V3.825H2.3625C1.0875 3.825 0 4.875 0 6.1875V20.325C0 21.6 1.05 22.6875 2.3625 22.6875H20.3625C21.6375 22.6875 22.725 21.6375 22.725 20.325V2.325C22.725 1.05 21.6375 0 20.3625 0ZM9.5625 21H2.3625C1.9875 21 1.6875 20.7 1.6875 20.325V6.15C1.6875 5.775 1.9875 5.475 2.3625 5.475H9.5625V21ZM21.0375 20.325C21.0375 20.7 20.7375 21 20.3625 21H11.25V2.325C11.25 1.95 11.55 1.65 11.8875 1.65H20.3625C20.7375 1.65 21.0375 1.95 21.0375 2.325V20.325Z" fill="#45505B"/>
<path d="M4.61094 9.86289H6.71094C7.16094 9.86289 7.57344 9.48789 7.57344 9.00039C7.57344 8.51289 7.19844 8.13789 6.71094 8.13789H4.61094C4.16094 8.13789 3.74844 8.51289 3.74844 9.00039C3.74844 9.48789 4.16094 9.86289 4.61094 9.86289ZM4.61094 14.0629H6.71094C7.16094 14.0629 7.57344 13.6879 7.57344 13.2004C7.57344 12.7129 7.19844 12.3379 6.71094 12.3379H4.61094C4.16094 12.3379 3.74844 12.7129 3.74844 13.2004C3.74844 13.6879 4.16094 14.0629 4.61094 14.0629ZM4.57344 18.3004H6.67344C7.12344 18.3004 7.53594 17.9254 7.53594 17.4379C7.53594 16.9504 7.16094 16.5754 6.67344 16.5754H4.57344C4.12344 16.5754 3.71094 16.9504 3.71094 17.4379C3.71094 17.9254 4.12344 18.3004 4.57344 18.3004ZM17.2109 4.83789H15.1109C14.6609 4.83789 14.2484 5.21289 14.2484 5.70039C14.2484 6.18789 14.6234 6.56289 15.1109 6.56289H17.2109C17.6609 6.56289 18.0734 6.18789 18.0734 5.70039C18.0734 5.21289 17.6609 4.83789 17.2109 4.83789ZM17.2109 10.2379H15.1109C14.6609 10.2379 14.2484 10.6129 14.2484 11.1004C14.2484 11.5504 14.6234 11.9629 15.1109 11.9629H17.2109C17.6609 11.9629 18.0734 11.5879 18.0734 11.1004C18.0359 10.6129 17.6609 10.2379 17.2109 10.2379ZM17.1734 15.6379H15.0734C14.6234 15.6379 14.2109 16.0129 14.2109 16.5004C14.2109 16.9879 14.5859 17.3629 15.0734 17.3629H17.1734C17.6234 17.3629 18.0359 16.9879 18.0359 16.5004C18.0359 16.0129 17.6234 15.6379 17.1734 15.6379Z" fill="#45505B"/>
</svg>
