<svg width="25" height="24" viewBox="0 0 25 24" fill="none" xmlns="http://www.w3.org/2000/svg">
<path fill-rule="evenodd" clip-rule="evenodd" d="M12.5 23.8668C5.59625 23.8668 0 18.5242 0 11.9334C0 5.34258 5.59625 0 12.5 0C19.4037 0 25 5.34258 25 11.9334C25 18.5242 19.4037 23.8668 12.5 23.8668ZM11.5625 9.54672V17.9001H13.4375V9.54672H11.5625ZM12.5 8.35338C12.8315 8.35338 13.1495 8.22765 13.3839 8.00386C13.6183 7.78006 13.75 7.47653 13.75 7.16004C13.75 6.84354 13.6183 6.54001 13.3839 6.31622C13.1495 6.09242 12.8315 5.9667 12.5 5.9667C12.1685 5.9667 11.8505 6.09242 11.6161 6.31622C11.3817 6.54001 11.25 6.84354 11.25 7.16004C11.25 7.47653 11.3817 7.78006 11.6161 8.00386C11.8505 8.22765 12.1685 8.35338 12.5 8.35338Z" fill="#EA4335"/>
</svg>
