<svg width="406" height="81" viewBox="0 0 406 81" fill="none" xmlns="http://www.w3.org/2000/svg">
<g clip-path="url(#clip0_8001_1652)">
<path fill-rule="evenodd" clip-rule="evenodd" d="M65.8989 60.066C62.0258 54.9041 60.7705 48.9239 67.3495 43.1228C51.6722 51.267 67.5471 60.9509 52.2617 65.8455C55.0997 78.2988 73.2889 62.1835 80.6827 75.6646C83.5906 69.4268 78.6782 69.2112 78.7923 63.533C71.7022 66.529 68.6143 63.6835 65.8989 60.066Z" fill="black"/>
<path fill-rule="evenodd" clip-rule="evenodd" d="M46.7616 2.94526C45.7234 8.44131 64.7822 3.97069 67.8896 24.6166C77.8048 11.9695 62.3826 -7.43177 46.7616 2.94526Z" fill="black"/>
<path fill-rule="evenodd" clip-rule="evenodd" d="M39.6385 14.4432C36.2504 16.8554 25.9314 25.7958 20.9668 20.4162C24.5693 28.477 38.2261 19.0471 42.1457 17.9359C52.5334 14.9887 60.5774 20.4777 66.1709 24.8543C66.5974 14.3291 53.8089 4.36461 39.6385 14.4432Z" fill="black"/>
<path fill-rule="evenodd" clip-rule="evenodd" d="M65.9531 1.31475C75.6049 6.3823 72.8792 21.2498 69.3471 25.0047C86.5689 22.7286 95.7548 40.3435 107.845 23.0341C95.0972 30.6811 94.3818 19.8025 85.4925 21.0288C89.2748 12.5123 101.819 20.2205 104.016 6.78543C97.1756 15.0308 86.7754 4.33309 78.8878 17.9003C81.2463 10.2984 74.159 0.28803 65.9531 1.31475Z" fill="black"/>
<path fill-rule="evenodd" clip-rule="evenodd" d="M35.0702 24.6327C23.526 32.7228 18.8213 44.0207 12.2539 36.6637C20.7993 52.0523 27.258 35.7534 39.9608 28.9328C45.3747 26.0248 55.11 23.2243 65.2582 26.3126C50.7198 15.8583 43.9576 18.4056 35.0702 24.6327Z" fill="black"/>
<path fill-rule="evenodd" clip-rule="evenodd" d="M43.5195 49.5509C41.8514 44.6541 46.6041 43.8315 48.1743 48.1387C50.1725 53.6223 48.0422 65.6345 32.1202 68.7377C37.3394 70.615 52.7831 66.7334 55.8529 55.5092C58.894 44.3905 43.9339 37.1854 62.8268 35.626C45.6296 27.119 36.6741 38.1428 36.5821 52.3188C36.5324 59.8106 29.5001 65.2913 24.3457 60.3364C31.8949 69.9936 47.3095 60.6822 43.5195 49.5509Z" fill="black"/>
<path fill-rule="evenodd" clip-rule="evenodd" d="M76.8594 38.0297C79.9458 45.3339 85.4318 39.9683 88.0192 46.4039C89.695 44.3315 89.7988 39.8148 86.1373 37.9031C83.2187 36.3786 79.4269 39.4314 76.8594 38.0297Z" fill="black"/>
<path fill-rule="evenodd" clip-rule="evenodd" d="M97.5287 56.8174C97.656 61.4755 101.656 67.7104 94.938 69.7078C90.3513 71.0731 88.0679 69.4006 85.8367 67.6566C83.4161 68.9226 86.3582 71.3808 87.2903 72.1897C90.7035 72.5157 92.0132 71.8283 94.5641 71.5004C96.0817 75.5568 92.2575 78.3669 91.3449 78.5097C87.1233 79.3951 85.9431 75.5749 81.7207 76.4603C85.1608 78.7316 88.2843 82.7531 92.5019 80.1572C95.9467 78.5619 95.7954 76.1655 97.5394 71.7668C99.008 68.0577 103.185 67.0027 104.198 61.2334C103.18 58.6807 100.921 57.6356 97.5287 56.8174Z" fill="black"/>
<path d="M65.7864 31.7914C65.7326 31.3969 65.5762 30.9222 65.3098 30.3393C65.1508 29.7775 64.6599 29.2971 63.8496 28.9118C63.1151 28.5627 62.1756 28.2877 61.0587 28.0939C59.9562 27.9028 49.9365 25.5858 39.534 31.485C33.6467 34.8244 27.6747 41.374 22.2042 48.4627C20.7853 50.3015 19.1596 51.8511 17.2754 53.2152C9.7935 58.6317 2.14656 55.0784 2.07017 55.096C1.93869 55.1269 0.814696 54.014 0.0321399 56.0856C-0.43147 57.313 4.14309 62.5145 12.2913 61.3081C20.0795 60.1555 25.7379 51.7257 26.6788 50.1935C34.5437 38.5546 43.6908 29.5822 55.8126 30.8705C57.105 31.0081 58.3168 31.0756 59.3943 31.2981C60.4758 31.5215 61.4661 31.7837 62.3379 32.079C63.1574 32.3575 63.886 32.6404 64.5083 32.9213C64.6261 33.042 64.7987 33.1044 64.9896 33.0785L65.1199 33.0603C65.3694 33.0262 65.9302 32.8336 65.7864 31.7914Z" fill="black"/>
<path d="M142.463 10.1339C143.888 10.6798 145.183 11.5107 146.348 12.6249L143.523 15.9354C141.762 14.4978 139.878 13.7791 137.87 13.7791C136.804 13.7791 135.961 13.9952 135.341 14.429C134.722 14.8628 134.413 15.4888 134.413 16.3068C134.413 16.8783 134.549 17.3425 134.821 17.7011C135.093 18.0613 135.576 18.4023 136.271 18.724C136.966 19.0458 138.006 19.43 139.394 19.8767C142.023 20.7203 143.957 21.7544 145.196 22.9823C146.435 24.2085 147.056 25.9502 147.056 28.2058C147.056 29.8179 146.646 31.2378 145.828 32.464C145.01 33.6919 143.832 34.646 142.295 35.3279C140.758 36.0099 138.937 36.3509 136.83 36.3509C134.722 36.3509 132.857 36.0163 131.233 35.3456C129.609 34.6764 128.214 33.7847 127.049 32.669L130.135 29.2848C131.128 30.1284 132.149 30.7608 133.204 31.1818C134.257 31.6028 135.404 31.8141 136.643 31.8141C137.907 31.8141 138.905 31.534 139.636 30.9769C140.368 30.4198 140.734 29.645 140.734 28.6525C140.734 28.0089 140.597 27.4694 140.324 27.0356C140.052 26.6018 139.582 26.2112 138.911 25.8638C138.242 25.5164 137.275 25.145 136.012 24.748C133.161 23.8804 131.134 22.8142 129.932 21.5495C128.728 20.2865 128.128 18.6872 128.128 16.7534C128.128 15.2662 128.523 13.9584 129.317 12.8298C130.111 11.7028 131.214 10.8351 132.628 10.2268C134.04 9.62008 135.639 9.31592 137.424 9.31592C139.358 9.31592 141.037 9.58966 142.463 10.1339Z" fill="black"/>
<path d="M165.946 18.1109C167.656 19.9583 168.512 22.542 168.512 25.8638C168.512 27.9705 168.121 29.8114 167.34 31.3867C166.559 32.9603 165.443 34.1817 163.993 35.0494C162.543 35.917 160.827 36.3509 158.843 36.3509C155.843 36.3509 153.482 35.4272 151.76 33.5798C150.035 31.734 149.176 29.1487 149.176 25.8269C149.176 23.7202 149.565 21.8793 150.346 20.304C151.127 18.7304 152.243 17.509 153.693 16.6413C155.144 15.7737 156.86 15.3398 158.843 15.3398C161.867 15.3398 164.235 16.2635 165.946 18.1109ZM156.167 21.1605C155.571 22.1642 155.273 23.7202 155.273 25.8269C155.273 27.9833 155.565 29.5585 156.147 30.5494C156.73 31.5403 157.628 32.0366 158.843 32.0366C160.033 32.0366 160.926 31.5339 161.521 30.5302C162.115 29.5265 162.413 27.9705 162.413 25.8638C162.413 23.7074 162.122 22.1322 161.539 21.1413C160.956 20.1504 160.058 19.6541 158.843 19.6541C157.654 19.6541 156.76 20.1552 156.167 21.1605Z" fill="black"/>
<path d="M184.688 15.6744L183.757 21.3638C183.013 21.1909 182.419 21.1044 181.973 21.1044C180.807 21.1044 179.92 21.5078 179.314 22.3131C178.705 23.1183 178.228 24.3269 177.882 25.9374V35.7185H172.006V15.9721H177.138L177.622 19.8029C178.068 18.439 178.744 17.3665 179.648 16.5853C180.553 15.8056 181.576 15.415 182.715 15.415C183.434 15.415 184.092 15.5015 184.688 15.6744Z" fill="black"/>
<path d="M204.657 17.1248C203.367 17.645 201.47 17.906 198.966 17.906C200.255 18.4519 201.198 19.121 201.793 19.9134C202.389 20.7074 202.685 21.7368 202.685 22.9998C202.685 24.2645 202.35 25.3995 201.681 26.4032C201.012 27.407 200.051 28.1946 198.8 28.7645C197.548 29.3344 196.078 29.6193 194.393 29.6193C193.599 29.6193 192.843 29.5457 192.124 29.3968C191.926 29.496 191.772 29.6513 191.66 29.861C191.548 30.0723 191.492 30.2885 191.492 30.5126C191.492 30.884 191.634 31.1753 191.921 31.3866C192.204 31.5963 192.781 31.702 193.65 31.702H196.624C198.135 31.702 199.462 31.9501 200.604 32.4464C201.744 32.9427 202.624 33.623 203.243 34.4907C203.863 35.3583 204.174 36.338 204.174 37.4282C204.174 39.4869 203.287 41.0909 201.515 42.2435C199.741 43.3977 197.181 43.974 193.835 43.974C191.431 43.974 189.534 43.7195 188.146 43.2104C186.757 42.703 185.785 41.989 185.226 41.0733C184.669 40.156 184.391 39.0034 184.391 37.6139H189.67C189.67 38.2094 189.787 38.6801 190.024 39.0274C190.259 39.3748 190.687 39.6342 191.306 39.8087C191.926 39.9815 192.819 40.0696 193.984 40.0696C195.595 40.0696 196.711 39.8759 197.33 39.4933C197.95 39.1075 198.26 38.5568 198.26 37.838C198.26 37.2425 198.025 36.7719 197.554 36.4245C197.082 36.0771 196.376 35.9042 195.435 35.9042H192.571C190.538 35.9042 189.02 35.5392 188.015 34.8076C187.011 34.076 186.51 33.1396 186.51 31.9998C186.51 31.281 186.72 30.5798 187.142 29.8979C187.563 29.2175 188.133 28.6524 188.852 28.2058C187.613 27.5366 186.713 26.7506 186.156 25.8445C185.599 24.9401 185.319 23.8435 185.319 22.5548C185.319 20.3473 186.113 18.5943 187.7 17.2928C189.286 15.9914 191.381 15.3398 193.984 15.3398C195.968 15.3895 197.647 15.1909 199.022 14.7459C200.399 14.2993 201.817 13.6429 203.28 12.7737L204.657 17.1248ZM191.958 20.0815C191.425 20.6642 191.157 21.463 191.157 22.4796C191.157 23.5457 191.425 24.3702 191.958 24.9529C192.491 25.5356 193.216 25.8269 194.133 25.8269C195.1 25.8269 195.836 25.542 196.346 24.9721C196.853 24.4006 197.108 23.5457 197.108 22.4059C197.108 20.2736 196.115 19.2075 194.133 19.2075C193.216 19.2075 192.491 19.4988 191.958 20.0815Z" fill="black"/>
<path d="M222.116 31.6284C222.325 31.9758 222.666 32.2351 223.137 32.408L221.911 36.2388C220.696 36.1395 219.703 35.8722 218.936 35.44C218.166 35.0061 217.573 34.3178 217.152 33.3749C215.861 35.3583 213.878 36.3509 211.201 36.3509C209.242 36.3509 207.681 35.7794 206.516 34.6396C205.35 33.4998 204.768 32.0126 204.768 30.178C204.768 28.0201 205.562 26.3728 207.148 25.2314C208.734 24.0916 211.027 23.5217 214.027 23.5217H216.036V22.6653C216.036 21.5015 215.788 20.7011 215.291 20.2672C214.795 19.8334 213.927 19.6173 212.688 19.6173C212.043 19.6173 211.262 19.7101 210.346 19.8958C209.428 20.0815 208.486 20.3361 207.519 20.6578L206.181 16.7902C207.42 16.3196 208.691 15.9594 209.993 15.7112C211.294 15.4647 212.503 15.3398 213.619 15.3398C216.444 15.3398 218.514 15.9225 219.828 17.088C221.142 18.2534 221.799 20.0015 221.799 22.3307V29.9907C221.799 30.7351 221.904 31.281 222.116 31.6284ZM216.036 30.2517V26.757H214.585C213.246 26.757 212.248 26.9923 211.592 27.463C210.934 27.9336 210.606 28.6652 210.606 29.6561C210.606 30.4502 210.811 31.0633 211.219 31.4971C211.629 31.9309 212.192 32.1487 212.911 32.1487C214.251 32.1487 215.291 31.5163 216.036 30.2517Z" fill="black"/>
<path d="M238.866 34.7886C238.147 35.2849 237.31 35.6691 236.356 35.9412C235.402 36.2133 234.454 36.351 233.511 36.351C229.198 36.3254 227.041 33.9466 227.041 29.2113V20.0625H224.252V15.9723H227.041V11.6965L232.917 11.0273V15.9723H237.454L236.822 20.0625H232.917V29.136C232.917 30.0533 233.066 30.7113 233.362 31.1067C233.66 31.5037 234.131 31.7022 234.776 31.7022C235.445 31.7022 236.152 31.4925 236.895 31.0698L238.866 34.7886Z" fill="black"/>
<path d="M254.745 15.9722V20.1007L245.821 31.2554H254.931L254.411 35.7185H239.016V31.5531L247.977 20.3969H239.797V15.9722H254.745Z" fill="black"/>
<path d="M131.645 51.9446V66.8644H128.113V51.9446H131.645Z" fill="black"/>
<path d="M149.17 55.9821C149.716 56.592 149.988 57.434 149.988 58.5114V66.8646H146.586V59.0925C146.586 58.0728 146.265 57.5637 145.618 57.5637C145.259 57.5637 144.944 57.6854 144.67 57.9303C144.398 58.1736 144.132 58.5466 143.875 59.0493V66.8646H140.473V59.0925C140.473 58.0728 140.15 57.5637 139.504 57.5637C139.16 57.5637 138.848 57.6902 138.568 57.9399C138.288 58.1912 138.019 58.561 137.76 59.0493V66.8646H134.359V55.433H137.329L137.566 56.7665C138.011 56.1934 138.502 55.766 139.042 55.4858C139.58 55.2057 140.193 55.0664 140.881 55.0664C141.528 55.0664 142.083 55.2249 142.551 55.5403C143.017 55.8556 143.358 56.3007 143.572 56.8754C144.032 56.2574 144.537 55.8028 145.091 55.5082C145.644 55.2137 146.277 55.0664 146.996 55.0664C147.901 55.0664 148.624 55.3722 149.17 55.9821Z" fill="black"/>
<path d="M167.361 55.9821C167.905 56.592 168.179 57.434 168.179 58.5114V66.8646H164.777V59.0925C164.777 58.0728 164.454 57.5637 163.809 57.5637C163.449 57.5637 163.133 57.6854 162.861 57.9303C162.588 58.1736 162.323 58.5466 162.064 59.0493V66.8646H158.662V59.0925C158.662 58.0728 158.341 57.5637 157.694 57.5637C157.35 57.5637 157.038 57.6902 156.757 57.9399C156.477 58.1912 156.208 58.561 155.951 59.0493V66.8646H152.549V55.433H155.52L155.757 56.7665C156.202 56.1934 156.693 55.766 157.231 55.4858C157.769 55.2057 158.384 55.0664 159.072 55.0664C159.717 55.0664 160.274 55.2249 160.74 55.5403C161.206 55.8556 161.549 56.3007 161.763 56.8754C162.223 56.2574 162.728 55.8028 163.281 55.5082C163.833 55.2137 164.469 55.0664 165.186 55.0664C166.09 55.0664 166.815 55.3722 167.361 55.9821Z" fill="black"/>
<path d="M179.805 56.6704C180.794 57.7398 181.29 59.2366 181.29 61.1592C181.29 62.379 181.065 63.4452 180.611 64.3561C180.16 65.267 179.513 65.9745 178.674 66.4772C177.834 66.9783 176.84 67.2296 175.692 67.2296C173.955 67.2296 172.588 66.6949 171.591 65.6255C170.594 64.5578 170.096 63.061 170.096 61.1368C170.096 59.9185 170.321 58.8524 170.773 57.9399C171.226 57.029 171.871 56.3231 172.711 55.8204C173.55 55.3177 174.544 55.0664 175.692 55.0664C177.443 55.0664 178.814 55.6011 179.805 56.6704ZM174.143 58.4362C173.798 59.0173 173.626 59.9185 173.626 61.1368C173.626 62.3854 173.794 63.2979 174.131 63.871C174.469 64.4457 174.989 64.7323 175.692 64.7323C176.382 64.7323 176.898 64.4425 177.242 63.8614C177.588 63.2803 177.759 62.379 177.759 61.1592C177.759 59.9105 177.591 58.9997 177.253 58.425C176.915 57.8503 176.395 57.5637 175.692 57.5637C175.004 57.5637 174.487 57.8551 174.143 58.4362Z" fill="black"/>
<path d="M192.937 56.6704C193.668 57.7398 194.033 59.2366 194.033 61.1592C194.033 62.3358 193.851 63.3843 193.484 64.3016C193.119 65.2205 192.594 65.9377 191.914 66.4547C191.232 66.9718 190.423 67.2295 189.492 67.2295C188.874 67.2295 188.31 67.1015 187.801 66.8421C187.292 66.5844 186.857 66.2258 186.498 65.7664L186.327 66.8646H183.312V50.8898L186.714 50.5232V56.5952C187.058 56.1213 187.5 55.7483 188.038 55.4762C188.576 55.2024 189.16 55.0664 189.793 55.0664C191.157 55.0664 192.203 55.6011 192.937 56.6704ZM190.503 61.1592C190.503 59.7953 190.345 58.8556 190.03 58.3385C189.714 57.8214 189.255 57.5637 188.651 57.5637C187.891 57.5637 187.244 58.0087 186.714 58.8988V63.6565C186.929 64.0007 187.191 64.2696 187.5 64.4633C187.808 64.657 188.142 64.7546 188.501 64.7546C189.836 64.7546 190.503 63.5556 190.503 61.1592Z" fill="black"/>
<path d="M199.298 49.9531C199.679 50.3197 199.87 50.7824 199.87 51.3411C199.87 51.9014 199.679 52.364 199.298 52.7306C198.919 53.0956 198.434 53.2797 197.846 53.2797C197.257 53.2797 196.777 53.0956 196.402 52.7306C196.029 52.364 195.844 51.9014 195.844 51.3411C195.844 50.7824 196.029 50.3197 196.402 49.9531C196.777 49.5865 197.257 49.4041 197.846 49.4041C198.434 49.4041 198.919 49.5865 199.298 49.9531ZM199.567 55.4328V66.8644H196.167V55.4328H199.567Z" fill="black"/>
<path d="M202.958 66.3795C202.404 65.8128 202.129 65.006 202.129 63.9574V50.8898L205.531 50.5232V63.8294C205.531 64.3016 205.724 64.5385 206.112 64.5385C206.312 64.5385 206.499 64.5033 206.67 64.4313L207.338 66.8421C206.722 67.1015 206.032 67.2295 205.271 67.2295C204.282 67.2295 203.51 66.9462 202.958 66.3795Z" fill="black"/>
<path d="M211.763 49.9531C212.142 50.3197 212.333 50.7824 212.333 51.3411C212.333 51.9014 212.142 52.364 211.763 52.7306C211.382 53.0956 210.898 53.2797 210.309 53.2797C209.72 53.2797 209.24 53.0956 208.867 52.7306C208.494 52.364 208.307 51.9014 208.307 51.3411C208.307 50.7824 208.494 50.3197 208.867 49.9531C209.24 49.5865 209.72 49.4041 210.309 49.4041C210.898 49.4041 211.382 49.5865 211.763 49.9531ZM212.032 55.4328V66.8644H208.63V55.4328H212.032Z" fill="black"/>
<path d="M224.604 62.1501H217.52C217.636 63.1106 217.908 63.7862 218.338 64.1736C218.769 64.561 219.365 64.7547 220.127 64.7547C220.584 64.7547 221.029 64.6714 221.46 64.5066C221.891 64.3417 222.358 64.0871 222.861 63.743L224.26 65.6367C222.925 66.6997 221.439 67.2296 219.803 67.2296C217.951 67.2296 216.531 66.6853 215.54 65.5935C214.549 64.5034 214.055 63.0402 214.055 61.2024C214.055 60.0402 214.263 58.9949 214.679 58.0696C215.095 57.1443 215.705 56.4127 216.509 55.8732C217.312 55.3353 218.274 55.0664 219.393 55.0664C221.044 55.0664 222.336 55.5835 223.269 56.616C224.202 57.6502 224.668 59.0845 224.668 60.9223C224.668 61.3961 224.647 61.8043 224.604 62.1501ZM221.332 59.9538C221.303 58.2024 220.685 57.3268 219.48 57.3268C218.891 57.3268 218.436 57.5429 218.113 57.9735C217.789 58.4042 217.592 59.1133 217.52 60.1042H221.332V59.9538Z" fill="black"/>
<path d="M235.607 55.9709C236.167 56.5728 236.445 57.4212 236.445 58.5114V66.8646H233.045V59.0925C233.045 58.5178 232.954 58.1208 232.775 57.8967C232.595 57.6758 232.326 57.5637 231.968 57.5637C231.28 57.5637 230.618 58.0584 229.988 59.0493V66.8646H226.586V55.433H229.557L229.794 56.7889C230.282 56.2142 230.809 55.7836 231.376 55.497C231.942 55.2105 232.578 55.0664 233.282 55.0664C234.271 55.0664 235.046 55.3674 235.607 55.9709Z" fill="black"/>
<path d="M249.535 56.1005C248.789 56.4015 247.691 56.552 246.24 56.552C246.986 56.8673 247.532 57.2547 247.876 57.7142C248.221 58.1736 248.393 58.7691 248.393 59.5007C248.393 60.2339 248.2 60.8902 247.812 61.4713C247.425 62.0524 246.868 62.5087 246.144 62.8385C245.419 63.1682 244.569 63.3331 243.593 63.3331C243.133 63.3331 242.696 63.2899 242.28 63.2051C242.165 63.2611 242.075 63.3523 242.011 63.474C241.945 63.5957 241.913 63.7205 241.913 63.8502C241.913 64.0647 241.997 64.2344 242.161 64.3561C242.326 64.4777 242.659 64.5386 243.162 64.5386H244.884C245.76 64.5386 246.527 64.6826 247.188 64.9692C247.848 65.2573 248.358 65.6511 248.717 66.1538C249.075 66.6565 249.255 67.2232 249.255 67.8539C249.255 69.0449 248.741 69.975 247.715 70.6425C246.689 71.3101 245.208 71.6431 243.269 71.6431C241.878 71.6431 240.78 71.4958 239.976 71.2028C239.173 70.9083 238.609 70.4953 238.286 69.9638C237.962 69.4339 237.801 68.7664 237.801 67.9627H240.858C240.858 68.3069 240.927 68.5791 241.063 68.7808C241.199 68.9809 241.447 69.1314 241.806 69.2322C242.165 69.3331 242.682 69.3827 243.356 69.3827C244.289 69.3827 244.934 69.2722 245.294 69.0497C245.653 68.8272 245.832 68.507 245.832 68.0908C245.832 67.7466 245.694 67.4745 245.422 67.2728C245.15 67.0727 244.74 66.9718 244.196 66.9718H242.538C241.361 66.9718 240.482 66.7605 239.901 66.3363C239.32 65.9137 239.029 65.371 239.029 64.7114C239.029 64.2952 239.15 63.8902 239.395 63.4948C239.639 63.101 239.968 62.7744 240.385 62.5151C239.667 62.1277 239.147 61.673 238.824 61.148C238.502 60.6245 238.34 59.989 238.34 59.243C238.34 57.9655 238.798 56.9506 239.717 56.1966C240.636 55.4426 241.849 55.0664 243.356 55.0664C244.503 55.0952 245.477 54.9799 246.272 54.7222C247.07 54.4629 247.891 54.0835 248.738 53.5808L249.535 56.1005ZM242.182 57.8118C241.873 58.148 241.72 58.6122 241.72 59.1998C241.72 59.8177 241.873 60.2947 242.182 60.6309C242.491 60.9687 242.911 61.1368 243.442 61.1368C244.002 61.1368 244.428 60.9719 244.723 60.6421C245.017 60.3123 245.165 59.8177 245.165 59.1565C245.165 57.9223 244.59 57.306 243.442 57.306C242.911 57.306 242.491 57.474 242.182 57.8118Z" fill="black"/>
<path d="M260.298 62.1501H253.216C253.329 63.1106 253.603 63.7862 254.034 64.1736C254.464 64.561 255.06 64.7547 255.82 64.7547C256.28 64.7547 256.725 64.6714 257.155 64.5066C257.586 64.3417 258.052 64.0871 258.555 63.743L259.954 65.6367C258.619 66.6997 257.133 67.2296 255.497 67.2296C253.646 67.2296 252.225 66.6853 251.236 65.5935C250.245 64.5034 249.75 63.0402 249.75 61.2024C249.75 60.0402 249.957 58.9949 250.374 58.0696C250.791 57.1443 251.4 56.4127 252.204 55.8732C253.008 55.3353 253.968 55.0664 255.089 55.0664C256.739 55.0664 258.031 55.5835 258.964 56.616C259.896 57.6502 260.363 59.0845 260.363 60.9223C260.363 61.3961 260.341 61.8043 260.298 62.1501ZM257.026 59.9538C256.997 58.2024 256.381 57.3268 255.175 57.3268C254.586 57.3268 254.13 57.5429 253.808 57.9735C253.485 58.4042 253.288 59.1133 253.216 60.1042H257.026V59.9538Z" fill="black"/>
<path d="M268.607 55.433C269.326 55.6763 269.957 56.0205 270.503 56.4655L269.254 58.3817C268.321 57.7942 267.381 57.4997 266.433 57.4997C265.988 57.4997 265.647 57.5749 265.41 57.7254C265.174 57.8759 265.055 58.0872 265.055 58.3609C265.055 58.5754 265.11 58.7515 265.217 58.8876C265.326 59.0237 265.543 59.1646 265.873 59.307C266.204 59.4511 266.714 59.624 267.402 59.8241C268.593 60.1683 269.48 60.6181 270.061 61.1704C270.642 61.7227 270.932 62.4863 270.932 63.4628C270.932 64.2376 270.711 64.9084 270.266 65.4751C269.821 66.0434 269.211 66.4772 268.436 66.7781C267.661 67.0791 266.8 67.2296 265.852 67.2296C264.89 67.2296 263.997 67.0791 263.173 66.7781C262.347 66.4772 261.647 66.061 261.072 65.5295L262.731 63.6773C263.693 64.4249 264.705 64.7979 265.766 64.7979C266.283 64.7979 266.688 64.7035 266.983 64.5178C267.277 64.3305 267.424 64.0647 267.424 63.7205C267.424 63.4484 267.367 63.2339 267.251 63.0754C267.136 62.9169 266.914 62.7696 266.584 62.6336C266.254 62.4975 265.731 62.3294 265.013 62.1277C263.879 61.7979 263.032 61.3385 262.473 60.7494C261.913 60.1619 261.633 59.4303 261.633 58.5546C261.633 57.8935 261.823 57.3028 262.202 56.7777C262.583 56.2542 263.129 55.838 263.84 55.529C264.549 55.2201 265.372 55.0664 266.304 55.0664C267.122 55.0664 267.89 55.1881 268.607 55.433Z" fill="black"/>
<path d="M282.579 62.1501H275.497C275.61 63.1106 275.884 63.7862 276.315 64.1736C276.745 64.561 277.339 64.7547 278.101 64.7547C278.561 64.7547 279.006 64.6714 279.436 64.5066C279.867 64.3417 280.333 64.0871 280.835 63.743L282.235 65.6367C280.899 66.6997 279.414 67.2296 277.778 67.2296C275.927 67.2296 274.506 66.6853 273.515 65.5935C272.526 64.5034 272.029 63.0402 272.029 61.2024C272.029 60.0402 272.237 58.9949 272.654 58.0696C273.07 57.1443 273.68 56.4127 274.483 55.8732C275.287 55.3353 276.249 55.0664 277.37 55.0664C279.018 55.0664 280.31 55.5835 281.244 56.616C282.177 57.6502 282.643 59.0845 282.643 60.9223C282.643 61.3961 282.622 61.8043 282.579 62.1501ZM279.307 59.9538C279.278 58.2024 278.66 57.3268 277.454 57.3268C276.867 57.3268 276.411 57.5429 276.087 57.9735C275.766 58.4042 275.567 59.1133 275.497 60.1042H279.307V59.9538Z" fill="black"/>
<path d="M285.279 66.3795C284.727 65.8128 284.451 65.006 284.451 63.9574V50.8898L287.851 50.5232V63.8294C287.851 64.3016 288.045 64.5385 288.434 64.5385C288.634 64.5385 288.821 64.5033 288.993 64.4313L289.66 66.8421C289.042 67.1015 288.354 67.2295 287.594 67.2295C286.603 67.2295 285.831 66.9462 285.279 66.3795Z" fill="black"/>
<path d="M291.673 66.3795C291.121 65.8128 290.846 65.006 290.846 63.9574V50.8898L294.246 50.5232V63.8294C294.246 64.3016 294.44 64.5385 294.829 64.5385C295.029 64.5385 295.216 64.5033 295.387 64.4313L296.055 66.8421C295.437 67.1015 294.748 67.2295 293.988 67.2295C292.997 67.2295 292.226 66.9462 291.673 66.3795Z" fill="black"/>
<path d="M303.676 55.433C304.393 55.6763 305.024 56.0205 305.569 56.4655L304.321 58.3817C303.388 57.7942 302.448 57.4997 301.5 57.4997C301.055 57.4997 300.714 57.5749 300.479 57.7254C300.242 57.8759 300.123 58.0872 300.123 58.3609C300.123 58.5754 300.176 58.7515 300.285 58.8876C300.392 59.0237 300.61 59.1646 300.941 59.307C301.271 59.4511 301.78 59.624 302.47 59.8241C303.661 60.1683 304.547 60.6181 305.128 61.1704C305.71 61.7227 306 62.4863 306 63.4628C306 64.2376 305.778 64.9084 305.333 65.4751C304.887 66.0434 304.278 66.4772 303.503 66.7781C302.728 67.0791 301.867 67.2296 300.919 67.2296C299.957 67.2296 299.064 67.0791 298.239 66.7781C297.413 66.4772 296.714 66.061 296.141 65.5295L297.797 63.6773C298.76 64.4249 299.771 64.7979 300.833 64.7979C301.35 64.7979 301.755 64.7035 302.049 64.5178C302.344 64.3305 302.491 64.0647 302.491 63.7205C302.491 63.4484 302.433 63.2339 302.318 63.0754C302.205 62.9169 301.982 62.7696 301.651 62.6336C301.321 62.4975 300.797 62.3294 300.08 62.1277C298.945 61.7979 298.098 61.3385 297.54 60.7494C296.979 60.1619 296.699 59.4303 296.699 58.5546C296.699 57.8935 296.89 57.3028 297.271 56.7777C297.65 56.2542 298.196 55.838 298.907 55.529C299.618 55.2201 300.439 55.0664 301.372 55.0664C302.19 55.0664 302.957 55.1881 303.676 55.433Z" fill="black"/>
<path d="M314.824 55.4106C315.457 55.6411 316.052 55.9917 316.613 56.4655L315.148 58.489C314.431 57.9447 313.705 57.671 312.974 57.671C312.212 57.671 311.639 57.9511 311.251 58.5114C310.864 59.0701 310.67 59.9746 310.67 61.2232C310.67 62.4287 310.864 63.2835 311.251 63.7862C311.639 64.2888 312.199 64.5386 312.931 64.5386C313.318 64.5386 313.67 64.4777 313.986 64.3561C314.301 64.2344 314.682 64.0375 315.127 63.7638L316.613 65.8737C315.478 66.7781 314.194 67.2296 312.758 67.2296C311.596 67.2296 310.59 66.983 309.745 66.4868C308.897 65.9921 308.245 65.2958 307.786 64.3993C307.326 63.5028 307.096 62.4511 307.096 61.2456C307.096 60.0402 307.326 58.9709 307.786 58.0376C308.245 57.1043 308.897 56.3759 309.745 55.8524C310.59 55.3289 311.575 55.0664 312.694 55.0664C313.483 55.0664 314.194 55.1817 314.824 55.4106Z" fill="black"/>
<path d="M327.077 55.9709C327.636 56.5728 327.916 57.4213 327.916 58.5114V66.8646H324.514V59.0925C324.514 58.5178 324.421 58.1208 324.236 57.8967C324.048 57.6758 323.783 57.5637 323.439 57.5637C322.75 57.5637 322.089 58.052 321.458 59.0285V66.8646H318.057V50.8898L321.458 50.5457V56.6593C321.932 56.1294 322.433 55.7308 322.965 55.465C323.496 55.1993 324.092 55.0664 324.751 55.0664C325.742 55.0664 326.517 55.3674 327.077 55.9709Z" fill="black"/>
<path d="M339.745 64.4953C339.867 64.6971 340.065 64.8475 340.337 64.9484L339.627 67.1655C338.924 67.1079 338.349 66.9542 337.906 66.7029C337.461 66.4516 337.115 66.053 336.872 65.5071C336.126 66.6565 334.978 67.2296 333.427 67.2296C332.293 67.2296 331.389 66.8998 330.715 66.2403C330.039 65.5791 329.703 64.7195 329.703 63.6565C329.703 62.4079 330.161 61.4538 331.08 60.7926C331.999 60.1331 333.326 59.8033 335.063 59.8033H336.226V59.307C336.226 58.6331 336.082 58.1704 335.796 57.9191C335.508 57.6678 335.005 57.5429 334.288 57.5429C333.915 57.5429 333.463 57.5957 332.932 57.703C332.401 57.8118 331.856 57.9591 331.296 58.1448L330.521 55.9052C331.238 55.6331 331.973 55.425 332.727 55.2809C333.481 55.1384 334.181 55.0664 334.826 55.0664C336.462 55.0664 337.661 55.4042 338.421 56.0781C339.182 56.7537 339.563 57.7654 339.563 59.1133V63.5493C339.563 63.9799 339.623 64.2952 339.745 64.4953ZM336.226 63.6997V61.6763H335.386C334.611 61.6763 334.033 61.8123 333.652 62.0845C333.273 62.3582 333.082 62.7808 333.082 63.3555C333.082 63.815 333.201 64.1704 333.438 64.4201C333.675 64.6714 334.001 64.7979 334.418 64.7979C335.192 64.7979 335.796 64.4313 336.226 63.6997Z" fill="black"/>
<path d="M346.453 53.3871C346.237 53.6176 346.13 54.005 346.13 54.5493V55.433H348.821L348.456 57.8006H346.13V66.8646H342.728V57.8006H341.006V55.433H342.728V54.4212C342.728 53.2718 343.106 52.3353 343.859 51.6118C344.613 50.8866 345.691 50.5232 347.099 50.5232C348.232 50.5232 349.274 50.7681 350.22 51.2564L349.295 53.4735C348.72 53.187 348.125 53.0429 347.508 53.0429C347.02 53.0429 346.668 53.1582 346.453 53.3871Z" fill="black"/>
<path d="M357.107 66.3267C356.691 66.6132 356.206 66.8358 355.653 66.9927C355.101 67.1511 354.552 67.2296 354.008 67.2296C351.51 67.2152 350.262 65.8384 350.262 63.0962V57.8006H348.646V55.433H350.262V52.9565L353.662 52.5691V55.433H356.289L355.922 57.8006H353.662V63.053C353.662 63.5845 353.748 63.9655 353.921 64.1944C354.092 64.4249 354.366 64.5386 354.739 64.5386C355.127 64.5386 355.535 64.4169 355.965 64.1736L357.107 66.3267Z" fill="black"/>
<path d="M378.162 55.9821C378.708 56.592 378.98 57.434 378.98 58.5114V66.8646H375.58V59.0925C375.58 58.0728 375.257 57.5637 374.61 57.5637C374.252 57.5637 373.936 57.6854 373.664 57.9303C373.39 58.1736 373.125 58.5466 372.867 59.0493V66.8646H369.465V59.0925C369.465 58.0728 369.142 57.5637 368.497 57.5637C368.152 57.5637 367.84 57.6902 367.56 57.9399C367.28 58.1912 367.011 58.561 366.753 59.0493V66.8646H363.352V55.433H366.323L366.56 56.7665C367.003 56.1934 367.496 55.766 368.034 55.4858C368.572 55.2057 369.185 55.0664 369.875 55.0664C370.52 55.0664 371.076 55.2249 371.543 55.5403C372.009 55.8556 372.35 56.3007 372.566 56.8754C373.025 56.2574 373.531 55.8028 374.083 55.5082C374.636 55.2137 375.271 55.0664 375.988 55.0664C376.893 55.0664 377.618 55.3722 378.162 55.9821Z" fill="black"/>
<path d="M391.165 56.6704C391.899 57.7398 392.264 59.2366 392.264 61.1592C392.264 62.3358 392.081 63.3843 391.715 64.3016C391.35 65.2205 390.825 65.9377 390.143 66.4547C389.462 66.9718 388.654 67.2295 387.722 67.2295C387.104 67.2295 386.541 67.1015 386.032 66.8421C385.521 66.5844 385.087 66.2258 384.729 65.7664L384.557 66.8646H381.543V50.8898L384.945 50.5232V56.5952C385.289 56.1213 385.731 55.7483 386.269 55.4762C386.806 55.2024 387.391 55.0664 388.023 55.0664C389.385 55.0664 390.434 55.6011 391.165 56.6704ZM388.734 61.1592C388.734 59.7953 388.575 58.8556 388.26 58.3385C387.943 57.8214 387.485 57.5637 386.882 57.5637C386.121 57.5637 385.475 58.0087 384.945 58.8988V63.6565C385.159 64.0007 385.422 64.2696 385.731 64.4633C386.038 64.657 386.373 64.7546 386.731 64.7546C388.066 64.7546 388.734 63.5556 388.734 61.1592Z" fill="black"/>
<path d="M402.468 66.8644V60.4706H397.99V66.8644H394.459V51.9446H397.99V57.714H402.468V51.9446H405.999V66.8644H402.468Z" fill="black"/>
</g>
<defs>
<clipPath id="clip0_8001_1652">
<rect width="406" height="81" fill="white"/>
</clipPath>
</defs>
</svg>
